<svg width="192" height="48" viewBox="0 0 192 48" fill="none" xmlns="http://www.w3.org/2000/svg">
<path d="M4 5H20" stroke="black" stroke-width="2" stroke-linecap="round"/>
<path d="M4 12H20" stroke="black" stroke-width="2" stroke-linecap="round"/>
<path d="M4 19H20" stroke="black" stroke-width="2" stroke-linecap="round"/>
<path fill-rule="evenodd" clip-rule="evenodd" d="M44.7269 3.12603C44.4369 2.87705 44.0655 2.74324 43.6833 2.75L43.67 2.75023L41.75 2.75012V12.2501H43.6833C44.0655 12.2569 44.4369 12.1232 44.7269 11.8742C45.0055 11.6351 45.1904 11.3059 45.25 10.9447V4.05557C45.1904 3.69438 45.0055 3.3651 44.7269 3.12603ZM40.25 12.841L36.5343 21.2014C36.1113 21.1119 35.7195 20.9015 35.409 20.5911C34.9871 20.1692 34.75 19.5969 34.75 19.0001V15.0001C34.75 14.5859 34.4142 14.2501 34 14.2501H28.34L28.3315 14.2502C28.1503 14.2522 27.9709 14.2149 27.8056 14.1407C27.6402 14.0665 27.493 13.9572 27.3741 13.8205C27.2552 13.6837 27.1675 13.5228 27.117 13.3488C27.0665 13.1749 27.0544 12.9922 27.0815 12.8132C27.0814 12.8133 27.0815 12.813 27.0815 12.8132L28.4616 3.81257C28.5068 3.5145 28.6582 3.24282 28.8879 3.04757C29.1176 2.85232 29.4101 2.74666 29.7116 2.75007L40.25 2.75012V12.841ZM43.6639 1.25012C44.4111 1.23863 45.1368 1.50099 45.7039 1.98784C46.2729 2.47622 46.6428 3.15652 46.7433 3.89959C46.7478 3.93291 46.75 3.96649 46.75 4.00012V11.0001C46.75 11.0337 46.7478 11.0673 46.7433 11.1006C46.6428 11.8437 46.2729 12.524 45.7039 13.0124C45.1368 13.4992 44.4111 13.7616 43.6639 13.7501H41.4874L37.6854 22.3047C37.565 22.5756 37.2964 22.7501 37 22.7501C36.0055 22.7501 35.0516 22.355 34.3484 21.6518C33.6451 20.9485 33.25 19.9947 33.25 19.0001V15.7501H28.344C27.9469 15.754 27.5537 15.6718 27.1914 15.5091C26.8277 15.3459 26.5038 15.1056 26.2422 14.8047C25.9806 14.5039 25.7876 14.1498 25.6764 13.767C25.5653 13.3841 25.5387 12.9817 25.5985 12.5876L26.9785 3.58767C26.9785 3.58788 26.9785 3.58745 26.9785 3.58767C27.0781 2.93218 27.4112 2.33406 27.9164 1.90466C28.4206 1.4761 29.0623 1.24374 29.7239 1.25012H43.6639Z" fill="black"/>
<path fill-rule="evenodd" clip-rule="evenodd" d="M58.3146 1.6954C58.435 1.42455 58.7036 1.25 59 1.25C59.9946 1.25 60.9484 1.64509 61.6517 2.34835C62.3549 3.05161 62.75 4.00544 62.75 5V8.25H67.6561C68.0532 8.24617 68.4464 8.32837 68.8087 8.49097C69.1724 8.6542 69.4962 8.89456 69.7578 9.19538C70.0194 9.4962 70.2125 9.8503 70.3236 10.2331C70.4347 10.616 70.4613 11.0184 70.4015 11.4125L69.0215 20.4125C69.0215 20.4125 69.0215 20.4124 69.0215 20.4125C68.9221 21.0681 68.589 21.6659 68.0836 22.0955C67.5794 22.524 66.9377 22.7564 66.2761 22.75H52C51.2707 22.75 50.5712 22.4603 50.0555 21.9445C49.5397 21.4288 49.25 20.7293 49.25 20V13C49.25 12.2707 49.5397 11.5712 50.0555 11.0555C50.5712 10.5397 51.2707 10.25 52 10.25H54.5126L58.3146 1.6954ZM55.75 11.1592L59.4657 2.79872C59.8888 2.88824 60.2806 3.09859 60.591 3.40901C61.0129 3.83097 61.25 4.40326 61.25 5V9C61.25 9.41421 61.5858 9.75 62 9.75H67.66L67.6685 9.74995C67.8497 9.7479 68.0292 9.78527 68.1945 9.85946C68.3598 9.93366 68.507 10.0429 68.6259 10.1796C68.7448 10.3164 68.8326 10.4773 68.8831 10.6514C68.9336 10.8253 68.9457 11.0081 68.9185 11.1871C68.9185 11.1872 68.9186 11.187 68.9185 11.1871L67.5385 20.1875C67.4933 20.4856 67.3419 20.7573 67.1122 20.9526C66.8825 21.1478 66.5899 21.2535 66.2885 21.25L55.75 21.25V11.1592ZM54.25 21.25V11.75H52C51.6685 11.75 51.3505 11.8817 51.1161 12.1161C50.8817 12.3505 50.75 12.6685 50.75 13V20C50.75 20.3315 50.8817 20.6495 51.1161 20.8839C51.3505 21.1183 51.6685 21.25 52 21.25H54.25Z" fill="black"/>
<path fill-rule="evenodd" clip-rule="evenodd" d="M84 3.75C79.4437 3.75 75.75 7.44365 75.75 12C75.75 13.0619 75.9503 14.0753 76.3144 15.0057C76.503 15.4876 76.596 16.0392 76.5011 16.603L75.9146 20.0854L79.397 19.4989C79.9608 19.404 80.5124 19.497 80.9943 19.6856C81.9247 20.0497 82.9381 20.25 84 20.25C88.5563 20.25 92.25 16.5563 92.25 12C92.25 7.44365 88.5563 3.75 84 3.75ZM74.25 12C74.25 6.61522 78.6152 2.25 84 2.25C89.3848 2.25 93.75 6.61522 93.75 12C93.75 17.3848 89.3848 21.75 84 21.75C82.748 21.75 81.5493 21.5136 80.4476 21.0824C80.1658 20.9721 79.8911 20.9369 79.6462 20.9781L75.8173 21.6229C74.9698 21.7657 74.2343 21.0302 74.3771 20.1827L75.0219 16.3539C75.0631 16.1089 75.0279 15.8342 74.9176 15.5524C74.4864 14.4507 74.25 13.252 74.25 12Z" fill="black"/>
<path fill-rule="evenodd" clip-rule="evenodd" d="M79.25 9.99976C79.25 9.58554 79.5858 9.24976 80 9.24976H88C88.4142 9.24976 88.75 9.58554 88.75 9.99976C88.75 10.414 88.4142 10.7498 88 10.7498H80C79.5858 10.7498 79.25 10.414 79.25 9.99976ZM79.25 13.9998C79.25 13.5855 79.5858 13.2498 80 13.2498H84C84.4142 13.2498 84.75 13.5855 84.75 13.9998C84.75 14.414 84.4142 14.7498 84 14.7498H80C79.5858 14.7498 79.25 14.414 79.25 13.9998Z" fill="black"/>
<path fill-rule="evenodd" clip-rule="evenodd" d="M107.47 8.46967C107.763 8.17678 108.237 8.17678 108.53 8.46967L114.53 14.4697C114.823 14.7626 114.823 15.2374 114.53 15.5303C114.237 15.8232 113.763 15.8232 113.47 15.5303L108 10.0607L102.53 15.5303C102.237 15.8232 101.763 15.8232 101.47 15.5303C101.177 15.2374 101.177 14.7626 101.47 14.4697L107.47 8.46967Z" fill="black"/>
<path fill-rule="evenodd" clip-rule="evenodd" d="M131.47 15.5303C131.763 15.8232 132.237 15.8232 132.53 15.5303L138.53 9.53033C138.823 9.23744 138.823 8.76256 138.53 8.46967C138.237 8.17678 137.763 8.17678 137.47 8.46967L132 13.9393L126.53 8.46967C126.237 8.17678 125.763 8.17678 125.47 8.46967C125.177 8.76256 125.177 9.23744 125.47 9.53033L131.47 15.5303Z" fill="black"/>
<path fill-rule="evenodd" clip-rule="evenodd" d="M152.47 11.4697C152.177 11.7626 152.177 12.2374 152.47 12.5303L158.47 18.5303C158.763 18.8232 159.237 18.8232 159.53 18.5303C159.823 18.2374 159.823 17.7626 159.53 17.4697L154.061 12L159.53 6.53033C159.823 6.23744 159.823 5.76256 159.53 5.46967C159.237 5.17678 158.763 5.17678 158.47 5.46967L152.47 11.4697Z" fill="black"/>
<path fill-rule="evenodd" clip-rule="evenodd" d="M183.53 11.4697C183.823 11.7626 183.823 12.2374 183.53 12.5303L177.53 18.5303C177.237 18.8232 176.763 18.8232 176.47 18.5303C176.177 18.2374 176.177 17.7626 176.47 17.4697L181.939 12L176.47 6.53033C176.177 6.23744 176.177 5.76256 176.47 5.46967C176.763 5.17678 177.237 5.17678 177.53 5.46967L183.53 11.4697Z" fill="black"/>
<path fill-rule="evenodd" clip-rule="evenodd" d="M12.949 26.9305C14.0335 25.8831 15.4859 25.3035 16.9936 25.3166C18.5012 25.3297 19.9434 25.9344 21.0095 27.0005C22.0756 28.0666 22.6803 29.5088 22.6934 31.0164C22.7065 32.5241 22.1269 33.9765 21.0795 35.061L21.0705 35.0704L18.0705 38.0702C17.4876 38.6533 16.786 39.1043 16.0135 39.3924C15.241 39.6806 14.4155 39.7993 13.5931 39.7404C12.7707 39.6815 11.9706 39.4464 11.247 39.0511C10.5234 38.6558 9.89334 38.1094 9.39947 37.4492C9.15137 37.1175 9.21912 36.6475 9.55081 36.3994C9.8825 36.1513 10.3525 36.219 10.6006 36.5507C10.9657 37.0387 11.4314 37.4425 11.9662 37.7347C12.501 38.0269 13.0924 38.2007 13.7003 38.2442C14.3081 38.2877 14.9183 38.2 15.4893 37.987C16.0603 37.774 16.5788 37.4407 17.0096 37.0097L20.0049 34.0144C20.7764 33.2134 21.2031 32.1417 21.1934 31.0295C21.1838 29.9151 20.7368 28.8492 19.9488 28.0612C19.1608 27.2732 18.0949 26.8263 16.9805 26.8166C15.8679 26.8069 14.796 27.2339 13.9948 28.0058L12.2788 29.7118C11.9851 30.0039 11.5102 30.0025 11.2182 29.7087C10.9261 29.415 10.9275 28.9401 11.2213 28.6481L12.949 26.9305Z" fill="black"/>
<path fill-rule="evenodd" clip-rule="evenodd" d="M7.98648 32.6075C8.759 32.3193 9.58447 32.2007 10.4069 32.2596C11.2293 32.3185 12.0294 32.5535 12.753 32.9489C13.4766 33.3442 14.1067 33.8905 14.6005 34.5507C14.8486 34.8824 14.7809 35.3524 14.4492 35.6006C14.1175 35.8487 13.6475 35.7809 13.3994 35.4492C13.0343 34.9612 12.5686 34.5574 12.0338 34.2652C11.499 33.973 10.9076 33.7993 10.2997 33.7557C9.69186 33.7122 9.08173 33.7999 8.51074 34.0129C7.93974 34.2259 7.42123 34.5592 6.99038 34.9902L3.99508 37.9855C3.22365 38.7866 2.79689 39.8582 2.80656 40.9705C2.81624 42.0848 3.26321 43.1508 4.05119 43.9387C4.83918 44.7267 5.90513 45.1737 7.01947 45.1834C8.13172 45.193 9.20334 44.7663 10.0044 43.9949L11.7096 42.2897C12.0025 41.9968 12.4774 41.9968 12.7703 42.2896C13.0632 42.5825 13.0632 43.0574 12.7703 43.3503L11.0511 45.0695C9.9666 46.1169 8.51406 46.6964 7.00643 46.6833C5.4988 46.6702 4.05663 46.0655 2.99053 44.9994C1.92444 43.9333 1.31971 42.4911 1.30661 40.9835C1.29351 39.4759 1.87308 38.0234 2.92049 36.9389L2.92955 36.9296L5.92953 33.9297C5.9295 33.9298 5.92956 33.9297 5.92953 33.9297C6.51243 33.3467 7.214 32.8957 7.98648 32.6075Z" fill="black"/>
<path fill-rule="evenodd" clip-rule="evenodd" d="M36 26C28.5848 26 25 30.4834 25 34.2764C25 37.1185 26.9042 39.6254 29.8046 41.1151L28.5848 45.4564C28.476 45.8413 28.927 46.1468 29.2729 45.9254L34.6226 42.4853C35.0736 42.5279 35.5331 42.5528 36 42.5528C42.0744 42.5528 47 38.8474 47 34.2764C47 30.4834 43 26 36 26Z" fill="black"/>
<path d="M70 36.0251C70 30.4912 65.52 26 60 26C54.48 26 50 30.4912 50 36.0251C50 40.8772 53.44 44.9173 58 45.8496V39.0326H56V36.0251H58V33.5188C58 31.584 59.57 30.01 61.5 30.01H64V33.0175H62C61.45 33.0175 61 33.4687 61 34.0201V36.0251H64V39.0326H61V46C66.05 45.4987 70 41.2281 70 36.0251Z" fill="black"/>
<path fill-rule="evenodd" clip-rule="evenodd" d="M76.25 36C76.25 35.5858 76.5858 35.25 77 35.25H91C91.4142 35.25 91.75 35.5858 91.75 36C91.75 36.4142 91.4142 36.75 91 36.75H77C76.5858 36.75 76.25 36.4142 76.25 36Z" fill="black"/>
<path fill-rule="evenodd" clip-rule="evenodd" d="M83.4697 28.4697C83.7626 28.1768 84.2374 28.1768 84.5303 28.4697L91.5303 35.4697C91.8232 35.7626 91.8232 36.2374 91.5303 36.5303L84.5303 43.5303C84.2374 43.8232 83.7626 43.8232 83.4697 43.5303C83.1768 43.2374 83.1768 42.7626 83.4697 42.4697L89.9393 36L83.4697 29.5303C83.1768 29.2374 83.1768 28.7626 83.4697 28.4697Z" fill="black"/>
<path fill-rule="evenodd" clip-rule="evenodd" d="M98.4697 26.4697C98.7626 26.1768 99.2374 26.1768 99.5303 26.4697L117.53 44.4697C117.823 44.7626 117.823 45.2374 117.53 45.5303C117.237 45.8232 116.763 45.8232 116.47 45.5303L98.4697 27.5303C98.1768 27.2374 98.1768 26.7626 98.4697 26.4697Z" fill="black"/>
<path fill-rule="evenodd" clip-rule="evenodd" d="M117.53 26.4697C117.237 26.1768 116.763 26.1768 116.47 26.4697L98.4697 44.4697C98.1768 44.7626 98.1768 45.2374 98.4697 45.5303C98.7626 45.8232 99.2374 45.8232 99.5303 45.5303L117.53 27.5303C117.823 27.2374 117.823 26.7626 117.53 26.4697Z" fill="black"/>
<path fill-rule="evenodd" clip-rule="evenodd" d="M122.055 28.0555C122.571 27.5397 123.271 27.25 124 27.25H131C131.414 27.25 131.75 27.5858 131.75 28C131.75 28.4142 131.414 28.75 131 28.75H124C123.668 28.75 123.351 28.8817 123.116 29.1161C122.882 29.3505 122.75 29.6685 122.75 30V44C122.75 44.3315 122.882 44.6495 123.116 44.8839C123.351 45.1183 123.668 45.25 124 45.25H138C138.332 45.25 138.649 45.1183 138.884 44.8839C139.118 44.6495 139.25 44.3315 139.25 44V37C139.25 36.5858 139.586 36.25 140 36.25C140.414 36.25 140.75 36.5858 140.75 37V44C140.75 44.7293 140.46 45.4288 139.945 45.9445C139.429 46.4603 138.729 46.75 138 46.75H124C123.271 46.75 122.571 46.4603 122.055 45.9445C121.54 45.4288 121.25 44.7293 121.25 44V30C121.25 29.2707 121.54 28.5712 122.055 28.0555Z" fill="black"/>
<path fill-rule="evenodd" clip-rule="evenodd" d="M140 26.6287C139.636 26.6287 139.288 26.7731 139.03 27.0303L129.677 36.3834L129.031 38.9692L131.617 38.3228L140.97 28.9697C141.227 28.7125 141.371 28.3637 141.371 28C141.371 27.6363 141.227 27.2875 140.97 27.0303C140.713 26.7731 140.364 26.6287 140 26.6287ZM137.97 25.9697C138.508 25.4312 139.238 25.1287 140 25.1287C140.762 25.1287 141.492 25.4312 142.03 25.9697C142.569 26.5081 142.871 27.2385 142.871 28C142.871 28.7615 142.569 29.4918 142.03 30.0303L132.53 39.5303C132.434 39.6264 132.314 39.6946 132.182 39.7276L128.182 40.7276C127.926 40.7915 127.656 40.7166 127.47 40.5303C127.283 40.344 127.209 40.0737 127.272 39.8181L128.272 35.8181C128.305 35.6862 128.374 35.5658 128.47 35.4697L137.97 25.9697Z" fill="black"/>
<path fill-rule="evenodd" clip-rule="evenodd" d="M147.883 39.8291C148.925 38.8157 150.335 38.25 151.8 38.25H160.2C161.665 38.25 163.075 38.8157 164.117 39.8291C165.16 40.8432 165.75 42.2232 165.75 43.6667V46C165.75 46.4142 165.414 46.75 165 46.75C164.586 46.75 164.25 46.4142 164.25 46V43.6667C164.25 42.6348 163.829 41.6408 163.071 40.9046C162.313 40.1676 161.281 39.75 160.2 39.75H151.8C150.719 39.75 149.687 40.1676 148.929 40.9046C148.171 41.6408 147.75 42.6348 147.75 43.6667V46C147.75 46.4142 147.414 46.75 147 46.75C146.586 46.75 146.25 46.4142 146.25 46V43.6667C146.25 42.2232 146.84 40.8432 147.883 39.8291Z" fill="black"/>
<path fill-rule="evenodd" clip-rule="evenodd" d="M156 26.75C153.653 26.75 151.75 28.6528 151.75 31C151.75 33.3472 153.653 35.25 156 35.25C158.347 35.25 160.25 33.3472 160.25 31C160.25 28.6528 158.347 26.75 156 26.75ZM150.25 31C150.25 27.8244 152.824 25.25 156 25.25C159.176 25.25 161.75 27.8244 161.75 31C161.75 34.1756 159.176 36.75 156 36.75C152.824 36.75 150.25 34.1756 150.25 31Z" fill="black"/>
<path fill-rule="evenodd" clip-rule="evenodd" d="M169.25 36C169.25 30.0629 174.063 25.25 180 25.25C185.937 25.25 190.75 30.0629 190.75 36C190.75 41.9371 185.937 46.75 180 46.75C174.063 46.75 169.25 41.9371 169.25 36ZM180 26.75C174.891 26.75 170.75 30.8914 170.75 36C170.75 41.1086 174.891 45.25 180 45.25C185.109 45.25 189.25 41.1086 189.25 36C189.25 30.8914 185.109 26.75 180 26.75Z" fill="black"/>
<path fill-rule="evenodd" clip-rule="evenodd" d="M187 44.0001L172 29.0001L173.061 27.9395L188.061 42.9395L187 44.0001Z" fill="black"/>
</svg>
