<svg width="16" height="16" viewBox="0 0 16 16" fill="none" xmlns="http://www.w3.org/2000/svg">
<g id="Icon/thumbs-up">
<path id="Vector (Stroke)" fill-rule="evenodd" clip-rule="evenodd" d="M6.87647 1.13018C6.95672 0.949619 7.13578 0.833252 7.33337 0.833252C7.99642 0.833252 8.6323 1.09664 9.10114 1.56549C9.56998 2.03433 9.83337 2.67021 9.83337 3.33325V5.49992H13.1041C13.3688 5.49736 13.631 5.55216 13.8725 5.66057C14.115 5.76939 14.3309 5.92962 14.5052 6.13017C14.6796 6.33072 14.8083 6.56679 14.8824 6.82201C14.9565 7.07724 14.9743 7.34553 14.9344 7.60828L14.0144 13.6082C14.0144 13.6083 14.0144 13.6082 14.0144 13.6082C13.9481 14.0453 13.726 14.4439 13.3891 14.7302C13.053 15.0159 12.6252 15.1708 12.1841 15.1666H2.66671C2.18048 15.1666 1.71416 14.9734 1.37034 14.6296C1.02653 14.2858 0.833374 13.8195 0.833374 13.3333V8.66659C0.833374 8.18036 1.02653 7.71404 1.37034 7.37022C1.71416 7.02641 2.18048 6.83325 2.66671 6.83325H4.34177L6.87647 1.13018ZM5.16671 7.43936L7.64387 1.86573C7.92589 1.92541 8.18709 2.06564 8.39403 2.27259C8.67534 2.5539 8.83337 2.93543 8.83337 3.33325V5.99992C8.83337 6.27606 9.05723 6.49992 9.33337 6.49992H13.1067L13.1124 6.49989C13.2332 6.49852 13.3528 6.52343 13.463 6.57289C13.5732 6.62236 13.6714 6.69519 13.7506 6.78635C13.8299 6.87751 13.8884 6.98481 13.9221 7.10082C13.9558 7.21676 13.9638 7.33863 13.9457 7.45799C13.9457 7.45806 13.9458 7.45791 13.9457 7.45799L13.0257 13.4583C12.9956 13.657 12.8946 13.8381 12.7415 13.9683C12.5884 14.0985 12.3933 14.1689 12.1924 14.1666L5.16671 14.1666V7.43936ZM4.16671 14.1666V7.83325H2.66671C2.44569 7.83325 2.23373 7.92105 2.07745 8.07733C1.92117 8.23361 1.83337 8.44557 1.83337 8.66659V13.3333C1.83337 13.5543 1.92117 13.7662 2.07745 13.9225C2.23373 14.0788 2.44569 14.1666 2.66671 14.1666H4.16671Z" fill="#818181"/>
</g>
</svg>
