<svg width="25" height="25" viewBox="0 0 25 25" fill="none" xmlns="http://www.w3.org/2000/svg">
<path fill-rule="evenodd" clip-rule="evenodd" d="M12.5 4.25C7.94365 4.25 4.25 7.94365 4.25 12.5C4.25 13.5619 4.45027 14.5753 4.81442 15.5057C5.00304 15.9876 5.096 16.5392 5.00106 17.103L4.41458 20.5854L7.89704 19.9989C8.46081 19.904 9.01241 19.997 9.49431 20.1856C10.4247 20.5497 11.4381 20.75 12.5 20.75C17.0563 20.75 20.75 17.0563 20.75 12.5C20.75 7.94365 17.0563 4.25 12.5 4.25ZM2.75 12.5C2.75 7.11522 7.11522 2.75 12.5 2.75C17.8848 2.75 22.25 7.11522 22.25 12.5C22.25 17.8848 17.8848 22.25 12.5 22.25C11.248 22.25 10.0493 22.0136 8.94759 21.5824C8.66576 21.4721 8.39114 21.4369 8.14615 21.4781L4.31731 22.1229C3.46976 22.2657 2.73435 21.5302 2.87708 20.6827L3.52189 16.8539C3.56315 16.6089 3.52791 16.3342 3.4176 16.0524C2.98637 14.9507 2.75 13.752 2.75 12.5Z" fill="#542F1A"/>
<path fill-rule="evenodd" clip-rule="evenodd" d="M7.75 10.4998C7.75 10.0855 8.08579 9.74976 8.5 9.74976H16.5C16.9142 9.74976 17.25 10.0855 17.25 10.4998C17.25 10.914 16.9142 11.2498 16.5 11.2498H8.5C8.08579 11.2498 7.75 10.914 7.75 10.4998ZM7.75 14.4998C7.75 14.0855 8.08579 13.7498 8.5 13.7498H12.5C12.9142 13.7498 13.25 14.0855 13.25 14.4998C13.25 14.914 12.9142 15.2498 12.5 15.2498H8.5C8.08579 15.2498 7.75 14.914 7.75 14.4998Z" fill="#542F1A"/>
</svg>
