<svg width="46" height="46" viewBox="0 0 46 46" fill="none" xmlns="http://www.w3.org/2000/svg">
<path fill-rule="evenodd" clip-rule="evenodd" d="M8.146 23C8.146 22.2061 8.78959 21.5625 9.5835 21.5625H36.4168C37.2107 21.5625 37.8543 22.2061 37.8543 23C37.8543 23.7939 37.2107 24.4375 36.4168 24.4375H9.5835C8.78959 24.4375 8.146 23.7939 8.146 23Z" fill="#515151"/>
<path fill-rule="evenodd" clip-rule="evenodd" d="M21.9835 8.56679C22.5449 8.00541 23.4551 8.00541 24.0165 8.56679L37.4331 21.9835C37.9945 22.5448 37.9945 23.455 37.4331 24.0164L24.0165 37.4331C23.4551 37.9944 22.5449 37.9944 21.9835 37.4331C21.4222 36.8717 21.4222 35.9615 21.9835 35.4001L34.3837 22.9999L21.9835 10.5997C21.4222 10.0383 21.4222 9.12816 21.9835 8.56679Z" fill="#515151"/>
</svg>
